# xmcd
# Copyright (C) 1995-1998 Ti Kan
#
# Track frame offsets:
#       150
#       21253
#       39418
#       72764
#       101862
#       123721
#       141573
#       155381
#       175702
#
# Disc length: 2702 seconds
#
# Revision: 0
# Processed by: cddbd v1.5.2PL0 Copyright (c) Steve Scherf et al.
# Submitted via: CD-Import v1.0
#
DISCID=7d0a8c09
DTITLE=Imperial Tiger Orchestra - Merca
DYEAR=11
DGENRE=
TTITLE0=Yedao
TTITLE1=Lale Lale
TTITLE2=Zoma
TTITLE3=Anchi Bale Game
TTITLE4=Yefikir Woha Timu
TTITLE5=Bemgnot Alnorem
TTITLE6=Shinet
TTITLE7=Demamaye
TTITLE8=Tirulegn (Feat. Bethlehem Dagnachew)
EXTD=
EXTT0=
EXTT1=
EXTT2=
EXTT3=
EXTT4=
EXTT5=
EXTT6=
EXTT7=
EXTT8=
PLAYORDER=
